<?xml version="1.0" encoding="UTF-8"?>
<svg width="95px" height="99px" viewBox="0 0 95 99" version="1.1" xmlns="http://www.w3.org/2000/svg" xmlns:xlink="http://www.w3.org/1999/xlink">
    <!-- Generator: Sketch 46.2 (44496) - http://www.bohemiancoding.com/sketch -->
    <title>BU and CC</title>
    <desc>Created with Sketch.</desc>
    <defs></defs>
    <g id="Page-1" stroke="none" stroke-width="1" fill="none" fill-rule="evenodd">
        <g id="BU-and-CC" fill-rule="nonzero" fill="#000000">
            <path d="M60.31,77.79 C66.3355757,77.8185947 71.3157425,73.0984544 71.61,67.08 C71.61,67.03 71.61,66.98 71.61,66.93 L82.61,54.61 C84.9219051,51.9284533 88.9328155,51.536608 91.72,53.72 C93.0638434,54.8291513 93.9017644,56.4348237 94.0430372,58.1715371 C94.18431,59.9082505 93.6169144,61.6282383 92.47,62.94 L70.55,88 C67.6445537,91.3484961 63.43327,93.2773005 59,93.29 L26.07,93.29 L20.36,99 L0,79.13 L14.6,64.61 C20.6484498,58.6117036 29.5886937,56.5891821 37.63,59.4 L40.84,60.52 L60.57,60.52 C62.2513645,60.5219185 63.8603315,61.2044423 65.0302481,62.4120374 C66.2001646,63.6196324 66.8313611,65.249419 66.78,66.93 C66.5718656,70.3409717 63.7168817,72.9844754 60.3,72.93 L48.46,72.93 C47.1262323,72.93 46.045,74.0112323 46.045,75.345 C46.045,76.6787677 47.1262323,77.76 48.46,77.76 L60.31,77.79 Z M70.49,22.45 C70.7257053,23.0815923 71.3258964,23.5029185 72,23.51 L82.43,23.51 C82.9264499,23.5069749 83.3948075,23.2792271 83.7037568,22.8906117 C84.0127061,22.5019962 84.128988,21.9943483 84.02,21.51 C81.7721165,11.2708532 73.7847391,3.26786773 63.55,1 C63.0656517,0.89101196 62.5580038,1.00729391 62.1693883,1.31624319 C61.7807729,1.62519246 61.5530251,2.09355013 61.55,2.59 L61.55,13 C61.55295,13.6777714 61.9750118,14.2829921 62.61,14.52 C66.2490224,15.9160713 69.1169736,18.8022202 70.49,22.45 Z M52,1 C43.4192156,2.8854959 36.3051705,8.85257442 32.9551805,16.974306 C29.6051906,25.0960376 30.4437255,34.3433357 35.2,41.73 C35.4653519,42.1500869 35.9068481,42.4272221 36.4005158,42.4835858 C36.8941835,42.5399494 37.3867861,42.3694632 37.74,42.02 L45.1,34.66 C45.5795841,34.1732295 45.7070842,33.4401041 45.42,32.82 C43.8845685,29.4058293 43.827758,25.5090245 45.2630096,22.0515451 C46.6982612,18.5940656 49.4980632,15.8830835 53,14.56 C53.6449045,14.3146525 54.0654617,13.6898247 54.05,13 L54.05,2.63 C54.0632509,2.11541887 53.8341311,1.62447204 53.4312206,1.30410905 C53.0283101,0.983746054 52.4983621,0.87114149 52,1 Z M52.19,39.6 C51.5675762,39.356033 50.8593679,39.5142919 50.4,40 L43,47.32 C42.6505368,47.6732139 42.4800506,48.1658165 42.5364142,48.6594842 C42.5927779,49.1531519 42.8699131,49.5946481 43.29,49.86 C50.6839353,54.6075052 59.9339571,55.4336101 68.0521522,52.0714688 C76.1703472,48.7093276 82.127743,41.5850881 84,33 C84.108988,32.5156517 83.9927061,32.0080038 83.6837568,31.6193883 C83.3748075,31.2307729 82.9064499,31.0030251 82.41,31 L72,31 C71.3247557,31.0013754 70.7202701,31.4189477 70.48,32.05 C69.1569165,35.5519368 66.4459344,38.3517388 62.9884549,39.7869904 C59.5309755,41.222242 55.6341707,41.1654315 52.22,39.63 L52.19,39.6 Z" id="Shape"></path>
        </g>
    </g>
</svg>