<?xml version="1.0" encoding="UTF-8"?>
<svg width="1083px" height="1130px" viewBox="0 0 1083 1130" version="1.1" xmlns="http://www.w3.org/2000/svg" xmlns:xlink="http://www.w3.org/1999/xlink">
    <!-- Generator: Sketch 46.2 (44496) - http://www.bohemiancoding.com/sketch -->
    <title>Group 2</title>
    <desc>Created with Sketch.</desc>
    <defs></defs>
    <g id="Page-1" stroke="none" stroke-width="1" fill="none" fill-rule="evenodd">
        <g id="Group-2" fill-rule="nonzero" fill="#42B02B">
            <path d="M694.310883,885.37882 C763.679525,885.708289 821.013035,831.322672 824.400636,761.977837 C824.400636,761.401736 824.400636,760.825634 824.400636,760.249532 L951.036678,618.298075 C977.652179,587.401202 1023.82725,582.886348 1055.91435,608.043464 C1071.38516,620.823143 1081.03162,639.323755 1082.658,659.334226 C1084.28439,679.344697 1077.75232,699.162454 1064.54862,714.276617 L812.197527,1003.01879 C778.748961,1041.60027 730.267115,1063.82402 679.229682,1063.97035 L300.12742,1063.97035 L234.391802,1129.76116 L0,900.818346 L168.080565,733.518413 C237.712542,664.405839 340.635916,641.102278 433.210389,673.488617 L470.165088,686.393295 L697.304099,686.393295 C716.660586,686.4154 735.183605,694.279463 748.652114,708.193413 C762.120623,722.107364 769.387189,740.885821 768.795901,760.249532 C766.399782,799.550864 733.532157,830.009403 694.19576,829.381736 L557.889329,829.381736 C542.534505,829.381736 530.086961,841.839731 530.086961,857.207447 C530.086961,872.575164 542.534505,885.033159 557.889329,885.033159 L694.310883,885.37882 Z M811.506784,247.749464 C814.220311,255.026693 821.129931,259.881227 828.890459,259.96282 L948.964452,259.96282 C954.679766,259.927965 960.071671,257.303847 963.628409,252.826207 C967.185146,248.348567 968.523827,242.499429 967.269117,236.918752 C941.390656,118.942956 849.437031,26.7322861 731.610954,0.601837222 C726.034959,-0.65392667 720.190729,0.68587785 715.716845,4.24560192 C711.242961,7.80532599 708.621045,13.2017589 708.586219,18.9218711 L708.586219,138.866244 C708.620181,146.675549 713.479111,153.648922 720.789329,156.379736 C762.683092,172.465317 795.7,205.719621 811.506784,247.749464 Z M598.64311,0.601837222 C499.857966,22.3265849 417.958464,91.0794658 379.392149,184.658332 C340.825834,278.237199 350.479356,384.784881 405.235336,469.894278 C408.290164,474.734533 413.372831,477.927695 419.056115,478.577119 C424.739398,479.226542 430.410421,477.262195 434.476749,473.235668 L519.207774,388.433498 C524.728922,382.824913 526.19675,374.377816 522.891731,367.232956 C505.215279,327.894765 504.561257,282.995649 521.084401,243.158453 C537.607545,203.321257 569.839893,172.08523 610.155477,156.840617 C617.579855,154.013715 622.421463,146.814428 622.243463,138.866244 L622.243463,19.3827525 C622.396012,13.4537312 619.758301,7.7970252 615.119847,4.10579195 C610.481393,0.414558704 604.380437,-0.882874895 598.64311,0.601837222 Z M600.830459,445.352346 C593.664888,442.54135 585.511733,444.364814 580.223322,449.961159 L495.031802,534.302447 C491.008653,538.37219 489.045954,544.047974 489.694832,549.73603 C490.343711,555.424085 493.534194,560.51102 498.370389,563.568413 C583.492089,618.269329 689.981739,627.787738 783.441384,589.049032 C876.901029,550.310327 945.484758,468.224599 967.038869,369.306922 C968.29358,363.726245 966.954899,357.877108 963.398161,353.399468 C959.841424,348.921827 954.449518,346.29771 948.734205,346.262854 L828.890459,346.262854 C821.116799,346.278701 814.157738,351.089984 811.391661,358.36099 C796.159837,398.710425 764.950015,430.969837 725.146241,447.506855 C685.342467,464.043873 640.481018,463.389301 601.17583,445.698007 L600.830459,445.352346 Z" id="Shape"></path>
        </g>
    </g>
</svg>