<?xml version="1.0" encoding="UTF-8"?>
<svg width="948px" height="678px" viewBox="0 0 948 678" version="1.1" xmlns="http://www.w3.org/2000/svg" xmlns:xlink="http://www.w3.org/1999/xlink">
    <!-- Generator: Sketch 46.2 (44496) - http://www.bohemiancoding.com/sketch -->
    <title>Group 8</title>
    <desc>Created with Sketch.</desc>
    <defs></defs>
    <g id="Page-1" stroke="none" stroke-width="1" fill="none" fill-rule="evenodd">
        <g id="Group-8" fill-rule="nonzero" fill="#42B02B">
            <path d="M783.916022,353.5 L405.71676,353.5 C398.289347,353.5 392.206642,359.569 392.206642,366.9925 L392.206642,609.994 C392.206642,617.428 398.289347,623.497 405.71676,623.497 L783.916022,623.497 C791.343435,623.497 797.415635,617.428 797.415635,609.994 L797.415635,366.9925 C797.415635,359.569 791.343435,353.5 783.916022,353.5 Z" id="Shape"></path>
            <path d="M759.900369,637 C763.16759,659.9005 782.865469,677.488 806.692022,677.488 C830.50807,677.488 850.216454,659.89 853.483675,637 L759.900369,637 Z" id="Shape"></path>
            <path d="M548.833664,637 C545.555937,659.9005 525.858059,677.488 502.042011,677.488 C478.215458,677.488 458.517579,659.89 455.239852,637 L548.833664,637 Z" id="Shape"></path>
            <path d="M675.348321,324.003216 L675.348321,190.474716 L351.179026,28.4702163 L27.0097306,190.474716 L27.0097306,661.494216 C27.0097306,668.949216 20.9585424,674.986716 13.4996125,674.986716 C6.04068266,674.986716 0,668.949216 0,661.494216 L0,182.190216 L0.0525276753,182.190216 C0.0525276753,177.265716 2.78396679,172.519716 7.49044649,170.167716 L345.106827,1.45371626 C348.773258,-0.404783736 353.238111,-0.551783736 357.198697,1.42221626 L693.733007,169.600716 C698.775664,171.564216 702.368557,176.457216 702.368557,182.190216 L702.368557,324.003216 C702.368557,331.458216 696.317369,337.495716 688.858439,337.495716 C681.399509,337.495716 675.348321,331.458216 675.348321,324.003216 Z" id="Shape"></path>
            <path d="M74.2846384,507.5 L186.840941,507.5 C193.028701,507.5 198.092369,512.561 198.092369,518.7455 L198.092369,631.253 C198.092369,637.4375 193.028701,642.4985 186.840941,642.4985 L74.2846384,642.4985 C68.0968782,642.4985 63.0332103,637.4375 63.0332103,631.253 L63.0332103,518.7455 C63.0332103,512.5715 68.0968782,507.5 74.2846384,507.5 Z" id="Shape"></path>
            <path d="M221.362145,507.5 L333.918448,507.5 C340.106208,507.5 345.180382,512.561 345.180382,518.7455 L345.180382,631.253 C345.180382,637.4375 340.116714,642.4985 333.918448,642.4985 L221.362145,642.4985 C215.174385,642.4985 210.110717,637.4375 210.110717,631.253 L210.110717,518.7455 C210.100212,512.5715 215.16388,507.5 221.362145,507.5 Z" id="Shape"></path>
            <path d="M74.2846384,360.5 L186.840941,360.5 C193.028701,360.5 198.092369,365.5505 198.092369,371.7455 L198.092369,484.2425 C198.092369,490.4375 193.028701,495.4985 186.840941,495.4985 L74.2846384,495.4985 C68.0968782,495.4985 63.0332103,490.4375 63.0332103,484.2425 L63.0332103,371.7455 C63.0332103,365.5505 68.0968782,360.5 74.2846384,360.5 Z" id="Shape"></path>
            <path d="M895.631882,409.36 L942.539096,447.706 C945.806317,450.373 947.497708,454.2475 947.497708,458.1535 L947.497708,608.4925 C947.497708,615.958 941.44652,621.9955 933.998096,621.9955 L825.938162,621.9955 C818.479232,621.9955 812.428044,615.958 812.428044,608.4925 L812.428044,419.503 C812.428044,412.048 818.479232,406 825.938162,406 L886.723188,406 C890.137487,406 893.257631,407.2705 895.631882,409.36 L895.631882,409.36 Z M920.487978,464.5375 L881.922159,432.9955 L839.437775,432.9955 L839.437775,500.5 L920.487978,500.5 L920.487978,464.5375 Z" id="Shape"></path>
        </g>
    </g>
</svg>