<?xml version="1.0" encoding="UTF-8"?>
<svg width="20px" height="22px" viewBox="0 0 20 22" version="1.1" xmlns="http://www.w3.org/2000/svg" xmlns:xlink="http://www.w3.org/1999/xlink">
    <!-- Generator: Sketch 46.2 (44496) - http://www.bohemiancoding.com/sketch -->
    <title>Dashboard white</title>
    <desc>Created with Sketch.</desc>
    <defs></defs>
    <g id="Page-1" stroke="none" stroke-width="1" fill="none" fill-rule="evenodd">
        <g id="Dashboard-white" fill-rule="nonzero" fill="#5B8BAA">
            <path d="M19.6952381,1.00034044 C19.6952381,0.44797651 19.2475864,0 18.6960906,0 L1.20867127,0 C0.656707785,0 0.20952381,0.44797651 0.20952381,1.00034044 C0.20952381,1.36967531 0.411598577,1.68845483 0.709097539,1.86165369 L0.709097539,13.3807822 C0.979466093,13.1336227 1.30830536,12.8326312 1.708245,12.466573 L1.708245,2.00021278 L18.1960491,2.00021278 L18.1960491,13.0002128 L5.31892816,13.0002128 C4.98447571,13.3658028 4.67902473,13.7004979 4.40491405,14.0010213 L5.28665233,14.0010213 L3.49043218,20.7426699 C3.34823142,21.2763096 3.66537654,21.8244606 4.1986294,21.9662964 C4.72907566,22.1076642 5.27916808,21.7912252 5.42136884,21.2575854 L7.22226665,14.4995532 L12.6815597,14.4995532 L14.4829253,21.2575854 C14.6022055,21.7046257 15.0058873,22 15.4474581,22 C15.533527,22 15.6195959,21.9897017 15.7056647,21.9662964 C16.2393854,21.8235244 16.5560627,21.2753734 16.4143297,20.7426699 L14.6176418,14.0005532 L18.6965584,14.0005532 C18.9725401,14.0005532 19.1956644,13.776799 19.1956644,13.500617 L19.1956644,1.86165369 C19.4936311,1.68798672 19.6952381,1.36967531 19.6952381,1.00034044 Z" id="Shape"></path>
            <path d="M10.7555556,11.0859344 L10.7555556,7.35169466 C10.7555556,6.80165061 10.3018325,6.35555556 9.74285714,6.35555556 C9.18388175,6.35555556 8.73015873,6.80165061 8.73015873,7.35169466 L8.73015873,11.0859344 C8.73015873,11.6369108 9.18388175,12.0825397 9.74285714,12.0825397 C10.3018325,12.0820735 10.7555556,11.6359785 10.7555556,11.0859344 Z" id="Shape"></path>
            <path d="M13.968254,11.0856716 L13.968254,3.85989371 C13.968254,3.30944711 13.5145309,2.86349206 12.9550814,2.86349206 C12.3956319,2.86349206 11.9428571,3.30944711 11.9428571,3.85989371 L11.9428571,11.0856716 C11.9428571,11.6365846 12.3965802,12.0825397 12.9555556,12.0825397 C13.5145309,12.0820732 13.968254,11.6361182 13.968254,11.0856716 Z" id="Shape"></path>
            <path d="M17.2507937,11.1499703 L17.2507937,5.8908307 C17.2507937,5.33711368 16.7971768,4.88888889 16.2383322,4.88888889 C15.6790137,4.88888889 15.2253968,5.33711368 15.2253968,5.8908307 L15.2253968,11.1499703 C15.2253968,11.7041562 15.6790137,12.152381 16.2383322,12.152381 C16.7971768,12.1519121 17.2507937,11.7032185 17.2507937,11.1499703 Z" id="Shape"></path>
            <path d="M7.26188471,9.0806168 C7.16685408,8.98606034 7.01190266,8.98559224 6.91687204,9.0806168 C6.91687204,9.0806168 0.222596369,15.2001049 0.190295319,15.2324039 C-0.0634317729,15.4861148 -0.0634317729,15.8980439 0.190295319,16.1522229 C0.444490542,16.4064019 0.856445967,16.4064019 1.11017306,16.1522229 C1.14247411,16.1208601 7.26188471,9.42654365 7.26188471,9.42654365 C7.35738346,9.33058289 7.35691533,9.17610946 7.26188471,9.0806168 Z" id="Shape"></path>
        </g>
    </g>
</svg>