<?xml version="1.0" encoding="UTF-8"?>
<svg width="22px" height="22px" viewBox="0 0 22 22" version="1.1" xmlns="http://www.w3.org/2000/svg" xmlns:xlink="http://www.w3.org/1999/xlink">
    <!-- Generator: Sketch 46.2 (44496) - http://www.bohemiancoding.com/sketch -->
    <title>Delivered Order Blue</title>
    <desc>Created with Sketch.</desc>
    <defs></defs>
    <g id="Page-1" stroke="none" stroke-width="1" fill="none" fill-rule="evenodd">
        <g id="Delivered-Order-Blue" fill-rule="nonzero" fill="#5B8BAA">
            <path d="M0.699712297,2.5069837 L7.77304408,4.11125 C8.0584826,4.17599457 8.36816705,4.23996196 8.47801392,4.25694022 L8.86564269,4.25951087 L8.88223202,4.25694022 C8.99207889,4.24002174 9.30166125,4.17599457 9.58709977,4.11125 L16.6604826,2.5069837 C16.7629791,2.48372826 17.0749606,2.41306522 17.0736845,2.10010326 C17.0724594,1.78720109 16.7599675,1.71994565 16.6572668,1.69782609 L9.2283109,0.099 C9.08002784,0.0671358696 8.88534571,0.0495597826 8.68014849,0.0495597826 C8.47495128,0.0495597826 8.28032019,0.0671358696 8.13198608,0.099 L0.702979118,1.69782609 C0.600278422,1.71994565 0.287786543,1.78720109 0.286510441,2.10010326 C0.285285383,2.41306522 0.597266821,2.48372826 0.699712297,2.5069837 Z" id="Shape"></path>
            <path d="M17.3602459,10.6310815 L17.3602459,5.2748587 C17.3602459,4.82236413 17.0751647,4.481125 16.6971323,4.481125 C16.6503248,4.481125 16.6025986,4.48656522 16.5553828,4.4972663 L9.89749884,6.00725543 C9.62676102,6.06865217 9.18329002,6.14834239 8.91122506,6.18463043 C8.91066357,6.18469022 8.85135035,6.19108696 8.68014849,6.19108696 C8.51195824,6.19108696 8.45172622,6.18486957 8.45131787,6.18486957 L8.45131787,6.18486957 C8.17690487,6.14834239 7.73343387,6.06865217 7.46269606,6.00719565 L0.804863109,4.49720652 C0.757596288,4.48650543 0.709921114,4.48106522 0.663113689,4.48106522 C0.285081206,4.481125 0,4.82236413 0,5.2748587 L0,15.9630924 C0,16.4365707 0.310909513,16.8780054 0.707828306,16.9680978 L8.1305058,18.6515163 C8.27935035,18.6852337 8.47454292,18.7038261 8.68014849,18.7038261 C8.8858051,18.7038261 9.08104872,18.6852337 9.22984223,18.6515163 L12.4804826,17.9142772 C13.0776984,20.2514783 14.9303434,21.9598859 17.1175824,21.9598859 C19.786065,21.9598859 21.9570719,19.4172717 21.9570719,16.2918967 C21.9569698,13.261875 19.9164316,10.7797011 17.3602459,10.6310815 Z M17.1175313,20.1664076 C15.29342,20.1664076 13.8094153,18.4283478 13.8094153,16.2918967 C13.8094153,14.1554457 15.29342,12.4173859 17.1175313,12.4173859 C18.9416427,12.4173859 20.4256984,14.1554457 20.4256984,16.2918967 C20.4256984,18.4283478 18.9416427,20.1664076 17.1175313,20.1664076 Z" id="Shape"></path>
            <path d="M18.3484594,14.3856685 L16.8906914,16.3850978 L16.275355,15.6644185 C15.9763898,15.3142717 15.4915731,15.3142717 15.1925568,15.6644185 C14.8935406,16.0145652 14.8935406,16.5823804 15.1925568,16.932587 L15.9966032,17.8742826 C16.23942,18.1587283 16.5686543,18.3188859 16.906464,18.3188859 C16.9227981,18.3188859 16.9391833,18.3185272 16.9555684,18.31775 C17.310478,18.3014293 17.6480835,18.1080924 17.8819165,17.7874185 L19.5130302,15.5502337 C19.7875963,15.1736033 19.7495174,14.6075815 19.4279397,14.2860109 C19.1063109,13.9644402 18.6230255,14.009038 18.3484594,14.3856685 Z" id="Shape"></path>
        </g>
    </g>
</svg>