<?xml version="1.0" encoding="UTF-8"?>
<svg width="570px" height="612px" viewBox="0 0 570 612" version="1.1" xmlns="http://www.w3.org/2000/svg" xmlns:xlink="http://www.w3.org/1999/xlink">
    <!-- Generator: Sketch 46.2 (44496) - http://www.bohemiancoding.com/sketch -->
    <title>Logorg normal</title>
    <desc>Created with Sketch.</desc>
    <defs></defs>
    <g id="Page-1" stroke="none" stroke-width="1" fill="none" fill-rule="evenodd">
        <g id="Logorg-normal">
            <g id="Logorg-Normal" fill-rule="nonzero" fill="#6F706E">
                <path d="M494.252,138.143 L494.252,173.623 L515.83,173.623 C545.411,173.623 569.391,197.603 569.391,227.184 L569.391,612 L466.02,612 L466.02,296.46 L97.843,296.46 L97.843,612 L0.608,612 L0.608,227.185 C0.608,197.604 24.587,173.624 54.169,173.624 L75.747,173.624 L75.747,138.144 L27.388,138.144 C12.597,138.144 0.608,126.154 0.608,111.363 L0.608,26.78 C0.608,11.99 12.598,0 27.388,0 L542.612,0 C557.402,0 569.392,11.99 569.392,26.78 L569.392,111.362 C569.392,126.153 557.402,138.142 542.612,138.142 L494.252,138.143 L494.252,138.143 Z M430.572,138.143 L139.427,138.143 L139.427,173.623 L430.572,173.623 L430.572,138.143 Z M444.335,603.073 L444.335,586.893 C444.335,581.962 440.339,577.966 435.408,577.966 L134.59,577.966 C129.66,577.966 125.663,581.962 125.663,586.893 L125.663,603.073 C125.663,608.004 129.66,612 134.59,612 L435.41,612 C440.339,612 444.335,608.004 444.335,603.073 Z M444.335,357.586 L444.335,341.406 C444.335,336.476 440.339,332.479 435.408,332.479 L134.59,332.479 C129.66,332.479 125.663,336.476 125.663,341.406 L125.663,357.586 C125.663,362.517 129.66,366.513 134.59,366.513 L435.41,366.513 C440.339,366.513 444.335,362.516 444.335,357.586 Z M444.335,418.958 L444.335,402.777 C444.335,397.847 440.339,393.85 435.408,393.85 L134.59,393.85 C129.66,393.85 125.663,397.847 125.663,402.777 L125.663,418.958 C125.663,423.888 129.66,427.885 134.59,427.885 L435.41,427.885 C440.339,427.885 444.335,423.888 444.335,418.958 Z M444.335,480.33 L444.335,464.15 C444.335,459.219 440.339,455.223 435.408,455.223 L134.59,455.223 C129.66,455.223 125.663,459.219 125.663,464.15 L125.663,480.33 C125.663,485.26 129.66,489.257 134.59,489.257 L435.41,489.257 C440.339,489.257 444.335,485.26 444.335,480.33 Z M444.335,541.701 L444.335,525.521 C444.335,520.59 440.339,516.594 435.408,516.594 L134.59,516.594 C129.66,516.594 125.663,520.59 125.663,525.521 L125.663,541.701 C125.663,546.632 129.66,550.628 134.59,550.628 L435.41,550.628 C440.339,550.628 444.335,546.632 444.335,541.701 Z" id="Shape"></path>
            </g>
            <text id="SHIPMENT" font-family="AvenirNext-Bold, Avenir Next" font-size="65" font-weight="bold" fill="#FFFFFF">
                <tspan x="114.005" y="86">SHIPMENT</tspan>
            </text>
        </g>
    </g>
</svg>