<?xml version="1.0" encoding="UTF-8"?>
<svg width="480px" height="480px" viewBox="0 0 480 480" version="1.1" xmlns="http://www.w3.org/2000/svg" xmlns:xlink="http://www.w3.org/1999/xlink">
    <!-- Generator: Sketch 46.2 (44496) - http://www.bohemiancoding.com/sketch -->
    <title>Group 7</title>
    <desc>Created with Sketch.</desc>
    <defs></defs>
    <g id="Page-1" stroke="none" stroke-width="1" fill="none" fill-rule="evenodd">
        <g id="Group-7" fill-rule="nonzero" fill="#42B02B">
            <path d="M348.272,345.76 C345.976,345.824 343.68,345.872 341.384,345.912 C340.944,345.92 340.504,345.928 340.056,345.936 C337.368,345.976 334.68,345.992 332,345.992 C329.312,345.992 326.616,345.968 323.92,345.936 C323.56,345.928 323.192,345.92 322.832,345.912 C320.448,345.872 318.072,345.824 315.688,345.752 C315.52,345.752 315.352,345.744 315.192,345.736 C260.392,344.12 206.088,334.576 176,317.592 L176,346 L176,349 L176,352 L176,368.728 C193.104,385.976 252.816,402 332,402 C401.664,402 456.216,389.592 480,374.872 L480,352 L480,349 L480,346 L480,321.672 C448.904,336.088 399.176,344.232 349.016,345.736 C348.768,345.744 348.52,345.752 348.272,345.76 Z" id="Shape"></path>
            <path d="M176,245.56 L176,274 L176,277 L176,280 L176,296.592 C176.416,297.008 176.784,297.432 177.256,297.848 C177.608,298.168 177.952,298.488 178.336,298.808 C198.4,315.2 257.584,330 332,330 C400.384,330 455.88,317.496 480,302.76 L480,280 L480,277 L480,274 L480,249.6 C445.352,265.6 387.584,274 332,274 C271.896,274 209.208,264.184 176,245.56 Z" id="Shape"></path>
            <path d="M176,389.592 L176,424 C176,425.2 176.288,426.352 176.8,427.376 C185.176,461.936 258.496,480 328,480 C397.376,480 470.528,462.008 479.16,427.576 C479.696,426.504 480,425.288 480,424 L480,393.672 C445.392,409.72 387.68,418 332,418 C271.768,418 209.168,408.32 176,389.592 Z" id="Shape"></path>
            <path d="M328,146 C258.48,146 184.88,164.416 176.768,198.672 C176.296,199.696 176,200.8 176,202 L176,205 L176,224.592 C193.224,241.832 254.232,258 332,258 C400.384,258 455.88,245.496 480,230.76 L480,205 L480,202 C480,200.84 479.712,199.76 479.248,198.768 C471.248,164.448 397.584,146 328,146 Z" id="Shape"></path>
            <path d="M443.136,0 L36.864,0 C16.536,0 0,16.536 0,36.864 L0,131.128 C0,138.92 2.512,146.08 6.68,152 L198.808,152 C230.6,137.56 278.288,130 324.352,130 C370.416,130 418.096,137.568 449.888,152 L473.312,152 C477.488,146.08 480,138.92 480,131.136 L480,36.864 C480,16.536 463.464,0 443.136,0 Z M84,120 C64.152,120 48,103.848 48,84 C48,64.152 64.152,48 84,48 C103.848,48 120,64.152 120,84 C120,103.848 103.848,120 84,120 Z M272,80 C267.584,80 264,76.416 264,72 C264,67.584 267.584,64 272,64 C276.416,64 280,67.584 280,72 C280,76.416 276.416,80 272,80 Z M288,104 C283.584,104 280,100.416 280,96 C280,91.584 283.584,88 288,88 C292.416,88 296,91.584 296,96 C296,100.416 292.416,104 288,104 Z M304,80 C299.584,80 296,76.416 296,72 C296,67.584 299.584,64 304,64 C308.416,64 312,67.584 312,72 C312,76.416 308.416,80 304,80 Z M320,104 C315.584,104 312,100.416 312,96 C312,91.584 315.584,88 320,88 C324.416,88 328,91.584 328,96 C328,100.416 324.416,104 320,104 Z M336,80 C331.584,80 328,76.416 328,72 C328,67.584 331.584,64 336,64 C340.416,64 344,67.584 344,72 C344,76.416 340.416,80 336,80 Z M352,104 C347.584,104 344,100.416 344,96 C344,91.584 347.584,88 352,88 C356.416,88 360,91.584 360,96 C360,100.416 356.416,104 352,104 Z M368,80 C363.584,80 360,76.416 360,72 C360,67.584 363.584,64 368,64 C372.416,64 376,67.584 376,72 C376,76.416 372.416,80 368,80 Z M384,104 C379.584,104 376,100.416 376,96 C376,91.584 379.584,88 384,88 C388.416,88 392,91.584 392,96 C392,100.416 388.416,104 384,104 Z M400,80 C395.584,80 392,76.416 392,72 C392,67.584 395.584,64 400,64 C404.416,64 408,67.584 408,72 C408,76.416 404.416,80 400,80 Z M416,104 C411.584,104 408,100.416 408,96 C408,91.584 411.584,88 416,88 C420.416,88 424,91.584 424,96 C424,100.416 420.416,104 416,104 Z" id="Shape"></path>
            <path d="M160,304 C160,302.752 160,280 160,280 L160,277 L160,274 L160,245.56 L160,224.592 L160,205 L160,202 C160,200.8 160.296,199.696 160.768,198.672 C163.688,186.344 175.176,176.104 191.816,168 L6.68,168 C2.512,173.92 0,181.08 0,188.864 L0,283.128 C0,290.92 2.512,298.08 6.68,304 L160,304 Z M84,200 C103.848,200 120,216.152 120,236 C120,255.848 103.848,272 84,272 C64.152,272 48,255.848 48,236 C48,216.152 64.152,200 84,200 Z" id="Shape"></path>
            <path d="M181.744,452.552 C170.656,445.488 163.152,437.088 160.8,427.376 C160.288,426.352 160,425.2 160,424 L160,389.592 L160,368.736 L160,352 L160,349 L160,346 L160,320 L6.68,320 C2.512,325.92 0,333.08 0,340.864 L0,435.128 C0,455.496 16.504,472 36.864,472 L176.616,472 C176.704,472 176.784,472 176.872,472 C187.008,471.856 190.288,457.992 181.744,452.552 Z M84,424 C64.152,424 48,407.848 48,388 C48,368.152 64.152,352 84,352 C103.848,352 120,368.152 120,388 C120,407.848 103.848,424 84,424 Z" id="Shape"></path>
        </g>
    </g>
</svg>