<?xml version="1.0" encoding="UTF-8"?>
<svg width="22px" height="22px" viewBox="0 0 22 22" version="1.1" xmlns="http://www.w3.org/2000/svg" xmlns:xlink="http://www.w3.org/1999/xlink">
    <!-- Generator: Sketch 46.2 (44496) - http://www.bohemiancoding.com/sketch -->
    <title>Outbound blue</title>
    <desc>Created with Sketch.</desc>
    <defs></defs>
    <g id="Page-1" stroke="none" stroke-width="1" fill="none" fill-rule="evenodd">
        <g id="Outbound-blue" fill-rule="nonzero" fill="#5B8BAA">
            <path d="M7.12187065,12.6262267 L19.4330597,12.6262267 C19.8857015,12.6262267 20.2539552,12.253335 20.2539552,11.7949924 L20.2539552,0.880166247 C20.2539552,0.421823678 19.8857015,0.0489319899 19.4330597,0.0489319899 L7.12187065,0.0489319899 C6.66922886,0.0489319899 6.30097512,0.421823678 6.30097512,0.880166247 L6.30097512,11.7950479 C6.30097512,12.253335 6.66922886,12.6262267 7.12187065,12.6262267 Z M13.2775473,4.31698741 L15.7464726,7.13609068 L14.4577214,7.13609068 L14.4577214,10.6486096 L12.0969353,10.6486096 L12.0969353,7.13631234 L10.8084577,7.13631234 L13.2775473,4.31698741 Z" id="Shape"></path>
            <path d="M21.8910398,16.6583778 C21.7538955,16.3134156 21.4394378,16.0991788 21.0703632,16.0991788 C20.8874677,16.0991788 20.7025473,16.1506599 20.520801,16.2522368 C18.9492239,17.1305189 16.9355672,17.8256524 15.1343582,18.1116524 C14.8682786,18.1539345 14.5591294,18.1753249 14.2155572,18.1753249 C13.3330398,18.1753249 12.3125025,18.0355668 11.4855323,17.8013804 C10.6435672,17.5629824 10.1371294,17.2584736 10.1258557,16.9848866 C10.1351045,16.9812846 10.1580896,16.9753552 10.2091493,16.9753552 C10.3751343,16.9753552 10.6918905,17.0354811 11.0928706,17.1116222 C11.7905771,17.2441209 12.7461542,17.4255516 13.6323383,17.4255516 C14.0583831,17.4255516 14.4331493,17.3826599 14.7462935,17.2980403 C15.5202886,17.0889018 15.7881194,16.5858388 15.7806766,16.184796 C15.773398,15.7933955 15.5211642,15.4632846 15.1672488,15.3819899 C14.9768557,15.3382116 14.5283731,15.1923023 13.9606418,15.0074358 C12.3617562,14.4869723 9.68569154,13.6158942 8.33745274,13.5754962 C8.32743781,13.5752191 8.3168209,13.5750529 8.30565672,13.5750529 C7.54906468,13.5750529 4.05938308,14.2844282 1.97436318,14.7083023 C1.41998507,14.8210176 0.982119403,14.9100151 0.705860697,14.9634358 C0.407985075,15.0209572 0,15.099869 0,15.5117733 C0,16.3092594 0.0207960199,17.0767657 0.0428507463,17.8893249 C0.0652885572,18.7173451 0.0884925373,19.5735164 0.0884925373,20.4795063 L0.0884925373,20.5003426 C0.0884378109,20.7023325 0.0883830846,20.8482418 0.137472637,20.9524786 C0.19241791,21.0692393 0.302144279,21.12133 0.493139303,21.12133 C0.596681592,21.12133 0.728900498,21.1068111 0.909278607,21.0756121 C1.69821393,20.9391234 4.14820398,20.5644584 5.06322886,20.5644584 C5.18669154,20.5644584 5.27835821,20.5711083 5.33571144,20.5842418 C6.11402985,20.7632343 12.5652289,21.9695214 14.437801,21.9695768 C14.4378557,21.9695768 14.4378557,21.9695768 14.4378557,21.9695768 C14.6078358,21.9695768 14.7323383,21.9597128 14.8184776,21.9394307 C16.2628706,21.5995113 20.5135224,19.078932 21.3554328,18.2598892 C21.8847463,17.744801 22.0849353,17.1460907 21.8910398,16.6583778 Z" id="Shape"></path>
        </g>
    </g>
</svg>