<?xml version="1.0" encoding="iso-8859-1"?>
<!-- Generator: Adobe Illustrator 19.0.0, SVG Export Plug-In . SVG Version: 6.00 Build 0)  -->
<svg xmlns="http://www.w3.org/2000/svg" xmlns:xlink="http://www.w3.org/1999/xlink" version="1.1" id="Capa_1" x="0px" y="0px" viewBox="0 0 512 512" style="enable-background:new 0 0 512 512;" xml:space="preserve" width="512px" height="512px">
<g>
	<g>
		<path d="M446.752,137.856c-0.8-1.952-1.984-3.712-3.456-5.184L315.328,4.704c-1.472-1.472-3.232-2.656-5.184-3.456    c-1.92-0.8-4-1.248-6.144-1.248H96C78.368,0,64,14.368,64,32v448c0,17.632,14.368,32,32,32h320c17.632,0,32-14.368,32-32V144    C448,141.856,447.552,139.776,446.752,137.856z M320,54.624L393.376,128H320V54.624z M416,480H96V32h192v96    c0,17.632,14.368,32,32,32h96V480z" fill="#4e89ab"/>
	</g>
</g>
<g>
	<g>
		<path d="M176,320c-8.832,0-16,7.168-16,16v96c0,8.832,7.168,16,16,16c8.832,0,16-7.168,16-16v-96C192,327.168,184.832,320,176,320    z" fill="#4e89ab"/>
	</g>
</g>
<g>
	<g>
		<path d="M336,192c-8.832,0-16,7.168-16,16v224c0,8.832,7.168,16,16,16c8.832,0,16-7.168,16-16V208    C352,199.168,344.832,192,336,192z" fill="#4e89ab"/>
	</g>
</g>
<g>
	<g>
		<path d="M256,256c-8.832,0-16,7.168-16,16v160c0,8.832,7.168,16,16,16c8.832,0,16-7.168,16-16V272    C272,263.168,264.832,256,256,256z" fill="#4e89ab"/>
	</g>
</g>
<g>
</g>
<g>
</g>
<g>
</g>
<g>
</g>
<g>
</g>
<g>
</g>
<g>
</g>
<g>
</g>
<g>
</g>
<g>
</g>
<g>
</g>
<g>
</g>
<g>
</g>
<g>
</g>
<g>
</g>
</svg>
