<?xml version="1.0" encoding="UTF-8"?>
<svg width="500px" height="612px" viewBox="0 0 500 612" version="1.1" xmlns="http://www.w3.org/2000/svg" xmlns:xlink="http://www.w3.org/1999/xlink">
    <!-- Generator: Sketch 46.2 (44496) - http://www.bohemiancoding.com/sketch -->
    <title>rate metrix normal</title>
    <desc>Created with Sketch.</desc>
    <defs></defs>
    <g id="Page-1" stroke="none" stroke-width="1" fill="none" fill-rule="evenodd">
        <g id="rate-metrix-normal" fill-rule="nonzero">
            <g id="Contract-Normal" fill="#6F706E">
                <path d="M254.634,43.714 L241.17,43.714 C233.976,43.714 228.144,37.881 228.144,30.688 L228.144,30.25 C228.144,13.543 214.6,0 197.893,0 L197.194,0 C180.487,0 166.944,13.543 166.944,30.25 L166.944,30.688 C166.944,37.882 161.111,43.715 153.918,43.715 L140.454,43.715 C126.113,43.715 114.488,55.34 114.488,69.681 L114.488,70.206 C114.488,84.547 126.113,96.172 140.454,96.172 L254.637,96.172 C268.977,96.172 280.602,84.546 280.602,70.206 L280.602,69.68 C280.601,55.34 268.976,43.714 254.634,43.714 Z M197.543,43.714 C190.3,43.714 184.429,37.842 184.429,30.6 C184.429,23.357 190.301,17.485 197.543,17.485 C204.786,17.485 210.657,23.357 210.657,30.6 C210.657,37.843 204.786,43.714 197.543,43.714 Z M255.929,550.8 L35.8,550.8 C16.486,550.8 0.829,535.143 0.829,515.829 L0.829,96.171 C0.829,76.857 16.486,61.2 27.057,61.2 L97.911,61.2 C97.32,64.104 97.001,67.114 97.001,70.208 C97.001,94.166 116.493,113.658 140.455,113.658 L254.633,113.658 C278.596,113.658 298.086,94.166 298.086,69.679 C298.086,66.776 297.775,63.946 297.231,61.2 L350.543,61.2 C378.602,61.2 394.258,76.857 394.258,96.171 L394.258,358.899 C391.352,358.718 388.467,358.457 385.516,358.457 C373.422,358.457 361.745,360.161 350.543,363.061 L350.543,157.371 L44.543,157.371 L44.543,507.086 L246.071,507.086 C247.029,522.453 250.387,537.162 255.929,550.8 Z M385.515,384.686 C322.744,384.686 271.859,435.573 271.859,498.343 C271.859,561.113 322.743,612 385.515,612 C448.287,612 499.171,561.113 499.171,498.343 C499.171,435.573 448.286,384.686 385.515,384.686 Z M306.829,306 L79.515,306 C74.686,306 70.772,302.085 70.772,297.257 L70.772,288.514 C70.772,283.685 74.687,279.771 79.515,279.771 L306.829,279.771 C311.657,279.771 315.573,283.686 315.573,288.514 L315.573,297.257 C315.571,302.085 311.657,306 306.829,306 Z M306.829,227.314 L79.515,227.314 C74.686,227.314 70.772,223.399 70.772,218.571 L70.772,209.828 C70.772,204.999 74.687,201.085 79.515,201.085 L306.829,201.085 C311.657,201.085 315.573,205 315.573,209.828 L315.573,218.571 C315.571,223.4 311.657,227.314 306.829,227.314 Z M263.114,375.943 L79.514,375.943 C74.685,375.943 70.771,372.028 70.771,367.2 L70.771,358.457 C70.771,353.628 74.686,349.714 79.514,349.714 L263.114,349.714 C267.944,349.714 271.858,353.628 271.858,358.457 L271.858,367.2 C271.856,372.028 267.944,375.943 263.114,375.943 Z M245.629,454.629 L79.515,454.629 C74.686,454.629 70.772,450.714 70.772,445.886 L70.772,437.143 C70.772,432.314 74.687,428.4 79.515,428.4 L245.63,428.4 C250.459,428.4 254.373,432.314 254.373,437.143 L254.373,445.886 C254.372,450.714 250.458,454.629 245.629,454.629 Z" id="Shape"></path>
            </g>
            <g id="rupee-indian" transform="translate(354.000000, 453.000000)" fill="#FFFFFF">
                <path d="M60.2008527,21.5334729 C59.796314,21.1284612 59.2785233,20.9263101 58.6491357,20.9263101 L47.1064225,20.9263101 C46.3408488,17.1923062 44.9007287,13.951031 42.7858256,11.206031 L58.5134225,11.206031 C59.1444651,11.206031 59.6608372,11.0036434 60.0667946,10.5995775 C60.4696783,10.1948023 60.6720659,9.67677519 60.6720659,9.04691473 L60.6720659,2.16006202 C60.6720659,1.52972868 60.4699147,1.01264729 60.0667946,0.607399225 C59.6603643,0.203096899 59.1439922,0 58.5129496,0 L2.35039147,0 C1.72005814,0 1.20297674,0.203096899 0.797728682,0.607162791 C0.393662791,1.01241085 0.190565891,1.52949225 0.190565891,2.15982558 L0.190565891,11.1377016 C0.190565891,11.7226395 0.404302326,12.228845 0.831775194,12.6563178 C1.25924806,13.0837907 1.76545349,13.2975271 2.35039147,13.2975271 L12.1385271,13.2975271 C21.6334845,13.2975271 27.6639729,15.8394302 30.2288101,20.9251279 L2.35039147,20.9251279 C1.72005814,20.9251279 1.20226744,21.1272791 0.797728682,21.5322907 C0.393662791,21.9377752 0.190565891,22.4546202 0.190565891,23.0849535 L0.190565891,29.9708605 C0.190565891,30.6007209 0.392717054,31.1185116 0.797728682,31.5225775 C1.20297674,31.928062 1.72100388,32.1297403 2.35039147,32.1297403 L31.1752558,32.1297403 C30.1850698,35.8209496 27.8784186,38.6330969 24.2553023,40.5683101 C20.6319496,42.5037597 15.8514884,43.4714845 9.91084496,43.4714845 L2.35039147,43.4714845 C1.76545349,43.4714845 1.25924806,43.6854574 0.831775194,44.1126938 C0.404065891,44.5404031 0.190565891,45.046845 0.190565891,45.6313101 L0.190565891,54.2051202 C0.190565891,54.7910039 0.392717054,55.2858605 0.797728682,55.6903992 C9.43774031,64.8706628 20.6437713,77.7177829 34.4144031,94.2350698 C34.8198876,94.7755581 35.3821279,95.045093 36.1023062,95.045093 L49.2650659,95.045093 C50.2110388,95.045093 50.8640698,94.6412636 51.2229767,93.8295853 C51.6729109,93.019562 51.5847209,92.2544612 50.9527326,91.5342829 C37.8136163,75.4229535 27.4847558,63.3624496 19.9692248,55.3522984 C27.6197597,54.4524302 33.8301744,51.9767287 38.6007054,47.9273217 C43.3705271,43.8774419 46.2727558,38.6111085 47.3085736,32.1309225 L58.6491357,32.1309225 C59.2785233,32.1309225 59.7965504,31.9290078 60.2008527,31.5237597 C60.6063372,31.1196938 60.8091977,30.6019031 60.8091977,29.9720426 L60.8091977,23.086845 C60.8091977,22.4558023 60.6063372,21.9387209 60.2008527,21.5334729 Z" id="Shape"></path>
            </g>
        </g>
    </g>
</svg>