<?xml version="1.0" encoding="UTF-8"?>
<svg width="500px" height="614px" viewBox="0 0 500 614" version="1.1" xmlns="http://www.w3.org/2000/svg" xmlns:xlink="http://www.w3.org/1999/xlink">
    <!-- Generator: Sketch 46.2 (44496) - http://www.bohemiancoding.com/sketch -->
    <title>Rate metrix active</title>
    <desc>Created with Sketch.</desc>
    <defs></defs>
    <g id="Page-1" stroke="none" stroke-width="1" fill="none" fill-rule="evenodd">
        <g id="Rate-metrix-active" transform="translate(1.000000, 1.000000)" stroke="#979797" fill-rule="nonzero" fill="#002E4E">
            <path d="M253.805,43.714 L240.341,43.714 C233.147,43.714 227.315,37.881 227.315,30.688 L227.315,30.25 C227.315,13.543 213.771,0 197.064,0 L196.365,0 C179.658,0 166.115,13.543 166.115,30.25 L166.115,30.688 C166.115,37.882 160.282,43.715 153.089,43.715 L139.625,43.715 C125.284,43.715 113.659,55.34 113.659,69.681 L113.659,70.206 C113.659,84.547 125.284,96.172 139.625,96.172 L253.808,96.172 C268.148,96.172 279.773,84.546 279.773,70.206 L279.773,69.68 C279.772,55.34 268.147,43.714 253.805,43.714 Z M196.714,43.714 C189.471,43.714 183.6,37.842 183.6,30.6 C183.6,23.357 189.472,17.485 196.714,17.485 C203.957,17.485 209.828,23.357 209.828,30.6 C209.828,37.843 203.957,43.714 196.714,43.714 Z M255.1,550.8 L34.971,550.8 C15.657,550.8 0,535.143 0,515.829 L0,96.171 C0,76.857 15.657,61.2 26.228,61.2 L97.082,61.2 C96.491,64.104 96.172,67.114 96.172,70.208 C96.172,94.166 115.664,113.658 139.626,113.658 L253.804,113.658 C277.767,113.658 297.257,94.166 297.257,69.679 C297.257,66.776 296.946,63.946 296.402,61.2 L349.714,61.2 C377.773,61.2 393.429,76.857 393.429,96.171 L393.429,358.899 C390.523,358.718 387.638,358.457 384.687,358.457 C372.593,358.457 360.916,360.161 349.714,363.061 L349.714,157.371 L43.714,157.371 L43.714,507.086 L245.242,507.086 C246.2,522.453 249.558,537.162 255.1,550.8 Z M411.558828,474.523257 C411.966863,474.928312 412.171,475.445148 412.171,476.075892 L412.171,482.957823 C412.171,483.587384 411.966863,484.104929 411.558828,484.508804 C411.151982,484.913859 410.630696,485.115678 409.997348,485.115678 L398.58544,485.115678 C397.543105,491.59279 394.622618,496.856625 389.822788,500.904583 C385.022244,504.952069 378.772758,507.426596 371.074092,508.326037 C378.636905,516.332388 389.030747,528.38717 402.252525,544.490856 C402.88849,545.210692 402.977234,545.97543 402.52447,546.785069 C402.163305,547.596362 401.506165,548 400.554241,548 L387.308671,548 C386.583962,548 386.018184,547.730593 385.610149,547.190361 C371.752882,530.680911 360.476351,517.839886 351.781983,508.663978 C351.374423,508.259631 351.171,507.765009 351.171,507.179403 L351.171,498.609661 C351.171,498.025473 351.385843,497.519271 351.816243,497.091765 C352.246406,496.664731 352.755796,496.45086 353.344414,496.45086 L360.952432,496.45086 C366.93045,496.45086 371.740986,495.483594 375.387134,493.549063 C379.033044,491.614768 381.354207,488.803955 382.350623,485.114497 L353.344414,485.114497 C352.711066,485.114497 352.18978,484.912914 351.781983,484.507622 C351.374423,484.103748 351.171,483.586203 351.171,482.956641 L351.171,476.074001 C351.171,475.443967 351.375375,474.927367 351.781983,474.522075 C352.189066,474.117255 352.710115,473.9152 353.344414,473.9152 L381.398223,473.9152 C378.81725,468.831915 372.748822,466.291218 363.194129,466.291218 L353.344414,466.291218 C352.755796,466.291218 352.246406,466.077583 351.816243,465.650313 C351.386081,465.223043 351.171,464.717078 351.171,464.132417 L351.171,455.158801 C351.171,454.528767 351.375375,454.011931 351.781983,453.606875 C352.18978,453.203001 352.710115,453 353.344414,453 L409.860306,453 C410.495318,453 411.014939,453.203001 411.423926,453.607111 C411.829583,454.012167 412.033005,454.529003 412.033005,455.159037 L412.033005,462.042623 C412.033005,462.672184 411.829345,463.189966 411.423926,463.594549 C411.015415,463.998423 410.495794,464.200714 409.860781,464.200714 L394.034238,464.200714 C396.162447,466.944412 397.611627,470.18415 398.382017,473.916382 L409.997348,473.916382 C410.630696,473.916382 411.151744,474.118437 411.558828,474.523257 Z M384.686,384.686 C321.915,384.686 271.03,435.573 271.03,498.343 C271.03,561.113 321.914,612 384.686,612 C447.458,612 498.342,561.113 498.342,498.343 C498.342,435.573 447.457,384.686 384.686,384.686 Z M306,306 L78.686,306 C73.857,306 69.943,302.085 69.943,297.257 L69.943,288.514 C69.943,283.685 73.858,279.771 78.686,279.771 L306,279.771 C310.828,279.771 314.744,283.686 314.744,288.514 L314.744,297.257 C314.742,302.085 310.828,306 306,306 Z M306,227.314 L78.686,227.314 C73.857,227.314 69.943,223.399 69.943,218.571 L69.943,209.828 C69.943,204.999 73.858,201.085 78.686,201.085 L306,201.085 C310.828,201.085 314.744,205 314.744,209.828 L314.744,218.571 C314.742,223.4 310.828,227.314 306,227.314 Z M262.285,375.943 L78.685,375.943 C73.856,375.943 69.942,372.028 69.942,367.2 L69.942,358.457 C69.942,353.628 73.857,349.714 78.685,349.714 L262.285,349.714 C267.115,349.714 271.029,353.628 271.029,358.457 L271.029,367.2 C271.027,372.028 267.115,375.943 262.285,375.943 Z M244.8,454.629 L78.686,454.629 C73.857,454.629 69.943,450.714 69.943,445.886 L69.943,437.143 C69.943,432.314 73.858,428.4 78.686,428.4 L244.801,428.4 C249.63,428.4 253.544,432.314 253.544,437.143 L253.544,445.886 C253.543,450.714 249.629,454.629 244.8,454.629 Z" id="Shape"></path>
        </g>
    </g>
</svg>