<?xml version="1.0" encoding="UTF-8"?>
<svg width="642px" height="541px" viewBox="0 0 642 541" version="1.1" xmlns="http://www.w3.org/2000/svg" xmlns:xlink="http://www.w3.org/1999/xlink">
    <!-- Generator: Sketch 46.2 (44496) - http://www.bohemiancoding.com/sketch -->
    <title>Group 6</title>
    <desc>Created with Sketch.</desc>
    <defs></defs>
    <g id="Page-1" stroke="none" stroke-width="1" fill="none" fill-rule="evenodd">
        <g id="Group-6" fill-rule="nonzero" fill="#42B02B">
            <path d="M386.84,93.376 C416.48,111.96 437.264,143.408 441.048,179.912 C453.136,185.56 466.552,188.808 480.776,188.808 C532.704,188.808 574.792,146.72 574.792,94.8 C574.792,42.872 532.704,0.784 480.776,0.784 C429.344,0.8 387.624,42.136 386.84,93.376 Z M325.248,285.872 C377.176,285.872 419.264,243.776 419.264,191.856 C419.264,139.936 377.168,97.848 325.248,97.848 C273.328,97.848 231.216,139.944 231.216,191.864 C231.216,243.784 273.328,285.872 325.248,285.872 Z M365.128,292.28 L285.352,292.28 C218.976,292.28 164.976,346.288 164.976,412.664 L164.976,510.224 L165.224,511.752 L171.944,513.856 C235.288,533.648 290.32,540.248 335.616,540.248 C424.088,540.248 475.368,515.024 478.528,513.416 L484.808,510.24 L485.48,510.24 L485.48,412.664 C485.504,346.288 431.504,292.28 365.128,292.28 Z M520.672,195.224 L441.512,195.224 C440.656,226.896 427.136,255.416 405.752,275.928 C464.752,293.472 507.92,348.184 507.92,412.808 L507.92,442.872 C586.08,440.008 631.12,417.856 634.088,416.368 L640.368,413.184 L641.04,413.184 L641.04,315.592 C641.04,249.224 587.04,195.224 520.672,195.224 Z M160.28,188.824 C178.672,188.824 195.784,183.456 210.28,174.312 C214.888,144.256 231,117.992 254.016,100.104 C254.112,98.344 254.28,96.6 254.28,94.824 C254.28,42.896 212.184,0.808 160.28,0.808 C108.344,0.808 66.264,42.896 66.264,94.824 C66.264,146.728 108.344,188.824 160.28,188.824 Z M244.712,275.928 C223.432,255.52 209.96,227.152 208.976,195.672 C206.04,195.456 203.136,195.224 200.144,195.224 L120.376,195.224 C54,195.224 0,249.224 0,315.592 L0,413.168 L0.248,414.672 L6.968,416.792 C57.784,432.656 103.136,439.968 142.528,442.272 L142.528,412.808 C142.544,348.184 185.696,293.488 244.712,275.928 Z" id="Shape"></path>
        </g>
    </g>
</svg>