<?xml version="1.0" encoding="UTF-8"?>
<svg width="642px" height="541px" viewBox="0 0 642 541" version="1.1" xmlns="http://www.w3.org/2000/svg" xmlns:xlink="http://www.w3.org/1999/xlink">
    <!-- Generator: Sketch 46.2 (44496) - http://www.bohemiancoding.com/sketch -->
    <title>Users Actibve</title>
    <desc>Created with Sketch.</desc>
    <defs></defs>
    <g id="Page-1" stroke="none" stroke-width="1" fill="none" fill-rule="evenodd">
        <g id="Users-Actibve" transform="translate(0.000000, -2.000000)" fill-rule="nonzero" fill="#002E4E">
            <path d="M386.84,95.376 C416.48,113.96 437.264,145.408 441.048,181.912 C453.136,187.56 466.552,190.808 480.776,190.808 C532.704,190.808 574.792,148.72 574.792,96.8 C574.792,44.872 532.704,2.784 480.776,2.784 C429.344,2.8 387.624,44.136 386.84,95.376 Z M325.248,287.872 C377.176,287.872 419.264,245.776 419.264,193.856 C419.264,141.936 377.168,99.848 325.248,99.848 C273.328,99.848 231.216,141.944 231.216,193.864 C231.216,245.784 273.328,287.872 325.248,287.872 Z M365.128,294.28 L285.352,294.28 C218.976,294.28 164.976,348.288 164.976,414.664 L164.976,512.224 L165.224,513.752 L171.944,515.856 C235.288,535.648 290.32,542.248 335.616,542.248 C424.088,542.248 475.368,517.024 478.528,515.416 L484.808,512.24 L485.48,512.24 L485.48,414.664 C485.504,348.288 431.504,294.28 365.128,294.28 Z M520.672,197.224 L441.512,197.224 C440.656,228.896 427.136,257.416 405.752,277.928 C464.752,295.472 507.92,350.184 507.92,414.808 L507.92,444.872 C586.08,442.008 631.12,419.856 634.088,418.368 L640.368,415.184 L641.04,415.184 L641.04,317.592 C641.04,251.224 587.04,197.224 520.672,197.224 Z M160.28,190.824 C178.672,190.824 195.784,185.456 210.28,176.312 C214.888,146.256 231,119.992 254.016,102.104 C254.112,100.344 254.28,98.6 254.28,96.824 C254.28,44.896 212.184,2.808 160.28,2.808 C108.344,2.808 66.264,44.896 66.264,96.824 C66.264,148.728 108.344,190.824 160.28,190.824 Z M244.712,277.928 C223.432,257.52 209.96,229.152 208.976,197.672 C206.04,197.456 203.136,197.224 200.144,197.224 L120.376,197.224 C54,197.224 0,251.224 0,317.592 L0,415.168 L0.248,416.672 L6.968,418.792 C57.784,434.656 103.136,441.968 142.528,444.272 L142.528,414.808 C142.544,350.184 185.696,295.488 244.712,277.928 Z" id="Shape"></path>
        </g>
    </g>
</svg>