<?xml version="1.0" encoding="UTF-8"?>
<svg width="598px" height="355px" viewBox="0 0 598 355" version="1.1" xmlns="http://www.w3.org/2000/svg" xmlns:xlink="http://www.w3.org/1999/xlink">
    <!-- Generator: Sketch 46.2 (44496) - http://www.bohemiancoding.com/sketch -->
    <title>Group 4</title>
    <desc>Created with Sketch.</desc>
    <defs></defs>
    <g id="Page-1" stroke="none" stroke-width="1" fill="none" fill-rule="evenodd">
        <g id="Group-4" fill-rule="nonzero" fill="#42B02B">
            <path d="M249.8418,216.33804 L317.7434,216.33804 C328.4957,216.33804 337.2434,207.587875 337.2434,196.832546 L337.2434,170.990366 C337.2434,160.235037 328.497,151.484872 317.7434,151.484872 L249.8418,151.484872 C239.0895,151.484872 230.3418,160.235037 230.3418,170.990366 L230.3418,196.832546 C230.3418,207.587875 239.0895,216.33804 249.8418,216.33804 Z" id="Shape"></path>
            <path d="M370.721,151.484872 C359.9687,151.484872 351.221,160.235037 351.221,170.990366 L351.221,196.832546 C351.221,207.587875 359.9687,216.33804 370.721,216.33804 L438.6226,216.33804 C449.3749,216.33804 458.1226,207.587875 458.1226,196.832546 L458.1226,170.990366 C458.1226,160.235037 449.3749,151.484872 438.6226,151.484872 L370.721,151.484872 L370.721,151.484872 Z" id="Shape"></path>
            <path d="M472.1015,170.990366 L472.1015,196.832546 C472.1015,207.587875 480.8492,216.33804 491.6015,216.33804 L559.5031,216.33804 C570.2554,216.33804 579.0031,207.587875 579.0031,196.832546 L579.0031,170.990366 C579.0031,160.235037 570.2554,151.484872 559.5031,151.484872 L491.6015,151.484872 C480.8479,151.484872 472.1015,160.233736 472.1015,170.990366 Z" id="Shape"></path>
            <path d="M370.721,65.6723993 L438.6226,65.6723993 C449.3749,65.6723993 458.1226,56.9222344 458.1226,46.1669048 L458.1226,20.3247253 C458.1226,9.5693956 449.3749,0.819230769 438.6226,0.819230769 L370.721,0.819230769 C359.9687,0.819230769 351.221,9.5693956 351.221,20.3247253 L351.221,46.1669048 C351.221,56.9222344 359.9687,65.6723993 370.721,65.6723993 Z" id="Shape"></path>
            <path d="M310.2814,141.00522 L378.183,141.00522 C388.9353,141.00522 397.683,132.255055 397.683,121.499725 L397.683,95.6575458 C397.683,84.9022161 388.9353,76.1520513 378.183,76.1520513 L310.2814,76.1520513 C299.5291,76.1520513 290.7814,84.9022161 290.7814,95.6575458 L290.7814,121.499725 C290.7814,132.256355 299.5291,141.00522 310.2814,141.00522 Z" id="Shape"></path>
            <path d="M411.6619,95.6575458 L411.6619,121.499725 C411.6619,132.255055 420.4096,141.00522 431.1619,141.00522 L499.0635,141.00522 C509.8171,141.00522 518.5635,132.255055 518.5635,121.499725 L518.5635,95.6575458 C518.5635,84.9022161 509.8171,76.1520513 499.0635,76.1520513 L431.1619,76.1520513 C420.4083,76.1520513 411.6619,84.9022161 411.6619,95.6575458 Z" id="Shape"></path>
            <path d="M573.5951,235.371502 L219.7624,235.371502 C215.917,235.371502 213.8019,234.532766 213.1051,233.748645 C212.8789,233.493773 212.7918,233.216795 212.7567,233.028242 L212.7567,41.3672527 L212.5539,40.5753297 C210.3283,31.8667766 202.514,25.783663 193.5531,25.783663 L183.456,25.783663 C176.2917,25.783663 170.4287,25.7108425 170.3312,25.7095421 L108.4512,25.7095421 C89.96,25.7095421 81.9299,36.2971245 76.0578,47.637619 C68.2734,62.046978 0,189.164286 0,214.962253 L0,262.499744 C0,279.88044 14.1375,294.020623 31.5146,294.020623 L58.3804,294.020623 C58.3466,294.824249 58.3193,295.630476 58.3193,296.441905 C58.3193,328.550549 84.4324,354.672308 116.5294,354.672308 C148.6264,354.672308 174.7395,328.550549 174.7395,296.441905 C174.7395,295.630476 174.7109,294.824249 174.6784,294.020623 L302.0524,294.020623 C302.0186,294.824249 301.9913,295.630476 301.9913,296.441905 C301.9913,328.550549 328.1057,354.672308 360.204,354.672308 C392.2997,354.672308 418.4128,328.550549 418.4128,296.441905 C418.4128,295.630476 418.3842,294.824249 418.3517,294.020623 L419.5828,294.020623 C419.549,294.824249 419.5217,295.630476 419.5217,296.441905 C419.5217,328.550549 445.6361,354.672308 477.7344,354.672308 C509.8301,354.672308 535.9432,328.550549 535.9432,296.441905 C535.9432,295.630476 535.9146,294.824249 535.8821,294.020623 L573.5925,294.020623 C586.8252,294.020623 597.1888,285.980458 597.1888,275.717967 L597.1888,253.674158 C597.1914,243.410366 586.8265,235.371502 573.5951,235.371502 Z M116.5294,324.36207 C101.1153,324.36207 88.6184,311.861648 88.6184,296.443205 C88.6184,281.024762 101.1153,268.526941 116.5294,268.526941 C131.9435,268.526941 144.4404,281.024762 144.4404,296.443205 C144.4404,311.861648 131.9435,324.36207 116.5294,324.36207 Z M178.7292,78.994652 C178.5875,81.781337 178.4393,84.6616484 178.4393,87.3456044 L178.4393,147.202766 C178.4393,154.656465 172.3787,160.718773 164.9284,160.718773 L70.9852,160.718773 C68.1291,160.718773 66.6601,160.089396 66.2389,159.499029 C65.6266,158.644689 65.4316,156.127179 66.8915,151.851575 C77.7153,120.159048 94.263,79.9972344 98.0642,72.2301465 C105.3871,57.2642308 113.7292,56.1082051 124.7155,56.1082051 L170.3338,56.1082051 C174.5497,56.1082051 175.8666,57.4930952 176.2995,57.9495238 C179.6236,61.4488095 179.1283,71.1781502 178.7292,78.994652 Z M360.2053,324.36207 C344.7912,324.36207 332.2969,311.861648 332.2969,296.443205 C332.2969,281.024762 344.7925,268.526941 360.2053,268.526941 C375.6194,268.526941 388.115,281.024762 388.115,296.443205 C388.115,311.861648 375.6194,324.36207 360.2053,324.36207 Z M477.7357,324.36207 C462.3216,324.36207 449.826,311.861648 449.826,296.443205 C449.826,281.024762 462.3216,268.526941 477.7357,268.526941 C493.1498,268.526941 505.6441,281.024762 505.6441,296.443205 C505.6441,311.861648 493.1498,324.36207 477.7357,324.36207 Z" id="Shape"></path>
        </g>
    </g>
</svg>